<svg id="Layer_1" data-name="Layer 1" xmlns="http://www.w3.org/2000/svg" viewBox="0 0 120.34 104.06"><defs><style>.cls-1{fill:#91483b;}</style></defs><path class="cls-1" d="M347.89,443.6l6.87.06c.12.34.24.68.35,1,.63,2,3.47,13.49,2.7,15l-3.37,0-10.46,0C344.52,454.65,345.72,448.19,347.89,443.6Z" transform="translate(-237.6 -368.55)"/><path class="cls-1" d="M331.5,423.1c.82,1.15.32,24.64.36,28.39l-37.18,21.12c-4.43-3.07-9.24-5.6-13.91-8.28l-21.7-12.39c-1-1.25-.47-25.73-.47-28.94,6.83,4.29,13.79,8.37,20.74,12.47,4.88,2.88,9.79,6.13,15.08,8.19C301.52,442.36,323.79,427.54,331.5,423.1Z" transform="translate(-237.6 -368.55)"/><path class="cls-1" d="M356,438c-.16-1.63-2.16-2.35-2.42-4.25-.52-3.77-.21-7.9-.2-11.71l0-18.21c-11.82-7.49-24.09-14.43-36.05-21.7l-15-9.14c-2.39-1.45-4.84-3.18-7.36-4.39-6.55,3.94-56,33.73-57.2,35.27,0,.54-.18,1.1.22,1.51,1.72,1.76,52.48,32.29,57.07,34.24,8.78-5.22,17.54-10.49,26.44-15.49,9.28-5.68,18.81-11.05,28-16.83,0,3.16.47,25.94.08,27.22-.1.33-.47.52-.72.76-.77.75-1.64,1.25-1.81,2.43a4.67,4.67,0,0,0,1.29,3.5,4.55,4.55,0,0,0,3.16,1.49,4.1,4.1,0,0,0,3.07-1.23A4.7,4.7,0,0,0,356,438Zm-32.9-26.16c-9.18-5-18.28-10-27.26-15.33a2,2,0,0,0-1.4-.54c-1.64.27-3.79,1.87-5.29,2.7-3.56,2-21.34,12.73-24.35,12a2.23,2.23,0,0,1-1.31-.86,2.79,2.79,0,0,1-.33-2.51,4.54,4.54,0,0,1,2.12-2.33c3.28-2.21,7.1-3.84,10.57-5.75,6-3.31,12-6.8,18-10.07a3.45,3.45,0,0,1,1.79.35c4.26,2,8.41,4.61,12.55,6.87,5.62,3.08,14.26,7,18.94,10.87l.09,1.18C326.33,410.39,325,410.9,323.05,411.79Z" transform="translate(-237.6 -368.55)"/></svg>