<svg id="Layer_1" data-name="Layer 1" xmlns="http://www.w3.org/2000/svg" viewBox="0 0 119.42 121"><defs><style>.cls-1{fill:#91483b;}</style></defs><path class="cls-1" d="M452.13-5078.33l.55,11.63,11.63-.54a4.89,4.89,0,0,0,4.67-5.13,4.9,4.9,0,0,0-5.12-4.67l-1.84.09-.09-1.84a4.89,4.89,0,0,0-5.12-4.67A4.92,4.92,0,0,0,452.13-5078.33Z" transform="translate(-358.29 5164.47)"/><path class="cls-1" d="M470.53-5056.39a3.78,3.78,0,0,0-3.95,3.6l-.07,1.42-1.41-.07a3.77,3.77,0,0,0-4,3.6,3.77,3.77,0,0,0,3.6,3.95l9,.42.41-9A3.77,3.77,0,0,0,470.53-5056.39Z" transform="translate(-358.29 5164.47)"/><path class="cls-1" d="M458.69-5092.38a2.59,2.59,0,0,0,2.58-2.58,2.58,2.58,0,0,0-2.58-2.57,2.57,2.57,0,0,0-2.57,2.57A2.58,2.58,0,0,0,458.69-5092.38Z" transform="translate(-358.29 5164.47)"/><path class="cls-1" d="M474.14-5087.29a2.58,2.58,0,0,0-2.58,2.57,2.58,2.58,0,0,0,2.58,2.58,2.57,2.57,0,0,0,2.57-2.58A2.57,2.57,0,0,0,474.14-5087.29Z" transform="translate(-358.29 5164.47)"/><path class="cls-1" d="M451-5059a2.58,2.58,0,0,0-2.58,2.57,2.59,2.59,0,0,0,2.58,2.58,2.58,2.58,0,0,0,2.57-2.58A2.57,2.57,0,0,0,451-5059Z" transform="translate(-358.29 5164.47)"/><path class="cls-1" d="M370.69-5134.17l11.64.54.54-11.64a4.9,4.9,0,0,0-4.67-5.12,4.9,4.9,0,0,0-5.13,4.67l-.09,1.83-1.83-.08a4.9,4.9,0,0,0-5.13,4.67A4.9,4.9,0,0,0,370.69-5134.17Z" transform="translate(-358.29 5164.47)"/><path class="cls-1" d="M360.87-5119.38l.41,9,9-.41a3.78,3.78,0,0,0,3.6-4,3.77,3.77,0,0,0-4-3.6l-1.41.07-.07-1.42a3.78,3.78,0,0,0-3.95-3.6A3.78,3.78,0,0,0,360.87-5119.38Z" transform="translate(-358.29 5164.47)"/><circle class="cls-1" cx="18.02" cy="2.57" r="2.57"/><circle class="cls-1" cx="2.57" cy="12.82" r="2.57"/><path class="cls-1" d="M381.46-5123.33a2.57,2.57,0,0,0,2.57,2.57,2.58,2.58,0,0,0,2.58-2.57,2.58,2.58,0,0,0-2.58-2.58A2.57,2.57,0,0,0,381.46-5123.33Z" transform="translate(-358.29 5164.47)"/><path class="cls-1" d="M404.63-5129.71a6.44,6.44,0,0,0,6.43-6.44v-19.59l18-4.51V-5149a6.43,6.43,0,0,0-3.87-1.29,6.44,6.44,0,0,0-6.43,6.43,6.45,6.45,0,0,0,6.43,6.44,6.45,6.45,0,0,0,6.44-6.44v-18a1.28,1.28,0,0,0-.49-1,1.3,1.3,0,0,0-1.11-.24L409.47-5158a1.29,1.29,0,0,0-1,1.25v15.45a6.38,6.38,0,0,0-3.86-1.29,6.45,6.45,0,0,0-6.44,6.44A6.46,6.46,0,0,0,404.63-5129.71Z" transform="translate(-358.29 5164.47)"/><path class="cls-1" d="M392.68-5087a9,9,0,0,0-6.38,2.64,8.94,8.94,0,0,0-2.63,6.37,8.94,8.94,0,0,0,2.63,6.37,9,9,0,0,0,12.75,0,9,9,0,0,0,2.64-6.37,9,9,0,0,0-2.64-6.37A9,9,0,0,0,392.68-5087Z" transform="translate(-358.29 5164.47)"/><path class="cls-1" d="M404-5080.25a11.32,11.32,0,0,1,.22,2.26,11.47,11.47,0,0,1-3.39,8.19,11.54,11.54,0,0,1-8.19,3.39,11.54,11.54,0,0,1-8.19-3.39,11.5,11.5,0,0,1-3.4-8.19,11.51,11.51,0,0,1,3.4-8.19,11.6,11.6,0,0,1,10.45-3.17l29.84-29.84a21.74,21.74,0,0,0-25.71,3.87,21.73,21.73,0,0,0-5.84,10.49,1.27,1.27,0,0,1-1.37,1,29.55,29.55,0,0,0-23.74,8.54,29.65,29.65,0,0,0,0,41.87,29.63,29.63,0,0,0,41.87,0,29.54,29.54,0,0,0,8.54-23.73,1.29,1.29,0,0,1,1-1.38,21.87,21.87,0,0,0,10.5-5.83,21.77,21.77,0,0,0,3.86-25.72Z" transform="translate(-358.29 5164.47)"/><path class="cls-1" d="M454.56-5149l1.83-1.83-4.55-4.56a1.29,1.29,0,0,0-1.82,0,1.29,1.29,0,0,0,0,1.82C452.06-5151.5,453.51-5150,454.56-5149Z" transform="translate(-358.29 5164.47)"/><path class="cls-1" d="M461.85-5156.27l1.82-1.82-4.55-4.55a1.29,1.29,0,0,0-1.82,0,1.29,1.29,0,0,0,0,1.82Z" transform="translate(-358.29 5164.47)"/><path class="cls-1" d="M470-5135.33a1.27,1.27,0,0,0,0-1.82c-.17-.18.67.66-4.55-4.56l-1.82,1.83c4.89,4.92,4.77,4.92,5.46,4.92A1.28,1.28,0,0,0,470-5135.33Z" transform="translate(-358.29 5164.47)"/><path class="cls-1" d="M477.33-5144.43l-4.55-4.56-1.83,1.83c5.05,5.07,4.84,4.92,5.47,4.92A1.29,1.29,0,0,0,477.33-5144.43Z" transform="translate(-358.29 5164.47)"/><path class="cls-1" d="M397.67-5088.44a11.66,11.66,0,0,1,5.47,5.45l71.62-71.62-5.46-5.47Z" transform="translate(-358.29 5164.47)"/></svg>