<svg id="Layer_1" data-name="Layer 1" xmlns="http://www.w3.org/2000/svg" viewBox="0 0 123.92 97.03"><defs><style>.cls-1{fill:#91483b;}</style></defs><path class="cls-1" d="M357,426.26H316.1l-8.17,13.25a3,3,0,0,1-2.59,1.44h-.07a3.05,3.05,0,0,1-2.59-1.58l-16.9-31-9.22,16a3,3,0,0,1-2.63,1.51H253.08a3,3,0,0,1,0-6.06h19.11l11-19.13a3,3,0,0,1,5.29.07l17,31.16,6.32-10.24a3,3,0,0,1,2.57-1.45h28.73a28.68,28.68,0,0,0-42.86-37.84l-7.8,7.53-7.8-7.53a28.68,28.68,0,0,0-40.22,40.89l48,48.09,38.95-39H357a3,3,0,1,0,0-6.06Z" transform="translate(-236.06 -374.3)"/></svg>