<svg id="Layer_1" data-name="Layer 1" xmlns="http://www.w3.org/2000/svg" viewBox="0 0 331.87 221.85">
<defs>
<style>.cls-1{opacity:0.3;}.cls-2{fill:none;stroke:#f1d6c4;stroke-miterlimit:10;stroke-width:1px;}</style>
</defs>
<g class="cls-1">
<path class="cls-2" d="M296.91,131.62a55.25,55.25,0,0,0-55.11,55.11H352A55.27,55.27,0,0,0,296.91,131.62Z" transform="translate(-130.94 -75.67)"/>
<path class="cls-2" d="M296.91,76.5H241.8A55.12,55.12,0,1,0,352,76.5Z" transform="translate(-130.94 -75.67)"/>
<path class="cls-2" d="M202.85,225.66" transform="translate(-130.94 -75.67)"/>
<line class="cls-2" x1="0.58" y1="166.23" x2="60.44" y2="132.81"/>
<path class="cls-2" d="M202.85,225.66a55.35,55.35,0,0,1-6.89-8.43" transform="translate(-130.94 -75.67)"/>
<polyline class="cls-2" points="55.72 111.06 0.58 111.06 0.58 215.19 0.58 221.32 55.69 221.32"/>
<polyline class="cls-2" points="87.78 160.9 55.69 221.32 110.84 221.32 110.84 166.17"/>
<path class="cls-2" d="M186.67,186.73a55.5,55.5,0,0,0,16.18,38.93,56.15,56.15,0,0,0,8.4,6.88,60.87,60.87,0,0,0,30.53,9.3V186.73Z" transform="translate(-130.94 -75.67)"/>
<line class="cls-2" x1="0.58" y1="221.32" x2="71.9" y2="150"/>
<polyline class="cls-2" points="110.76 55.91 110.76 0.8 55.65 0.8 55.61 0.8 0.5 0.8 0.5 111.06 55.61 111.06 55.65 111.06 110.76 111.06 110.76 55.95"/>
<line class="cls-2" x1="110.92" y1="55.93" x2="0.5" y2="55.93"/>
<polyline class="cls-2" points="221.1 166.21 221.1 111.1 165.98 111.1 165.95 111.1 110.84 111.1 110.84 221.36 165.95 221.36 165.98 221.36 221.1 221.36 221.1 166.24"/>
<line class="cls-2" x1="221.26" y1="166.23" x2="110.84" y2="221.32"/>
<line class="cls-2" x1="221.26" y1="111.1" x2="110.84" y2="166.23"/>
<rect class="cls-2" x="110.92" y="0.84" width="110.18" height="110.18"/>
<path class="cls-2" d="M407.16,296.94h0s0,.05,0,.08h0s0-.06,0-.09Z" transform="translate(-130.94 -75.67)"/>
<path class="cls-2" d="M352.09,241.87h0v0h.05S352.09,241.89,352.09,241.87Z" transform="translate(-130.94 -75.67)"/>
<path class="cls-2" d="M407.16,186.81h0v-.05h0s0,0,0,.05Z" transform="translate(-130.94 -75.67)"/>
<path class="cls-2" d="M462.22,241.87v0h.08v0Z" transform="translate(-130.94 -75.67)"/>
<path class="cls-2" d="M407.19,186.76v.05a55.06,55.06,0,0,1,55,55.06h.08V186.76Z" transform="translate(-130.94 -75.67)"/>
<path class="cls-2" d="M407.2,296.93s0,.06,0,.09H462.3V241.91h-.08A55.06,55.06,0,0,1,407.2,296.93Z" transform="translate(-130.94 -75.67)"/>
<path class="cls-2" d="M407.15,186.81s0,0,0-.05H352.05v55.11h0A55.06,55.06,0,0,1,407.15,186.81Z" transform="translate(-130.94 -75.67)"/>
<path class="cls-2" d="M352.1,241.91h-.05V297h55.11s0,0,0-.08A55.06,55.06,0,0,1,352.1,241.91Z" transform="translate(-130.94 -75.67)"/>
<path class="cls-2" d="M407.2,296.93a55.06,55.06,0,0,0,55-55A55.25,55.25,0,0,0,407.2,296.93Z" transform="translate(-130.94 -75.67)"/>
<path class="cls-2" d="M462.22,241.87a55.06,55.06,0,0,0-55-55.06h0a55.06,55.06,0,0,0-55.06,55.06h0s0,0,0,0a55.27,55.27,0,0,1,55,55h.05a55.25,55.25,0,0,1,55-55v0Z" transform="translate(-130.94 -75.67)"/>
<path class="cls-2" d="M352.1,241.91a55.06,55.06,0,0,0,55,55A55.27,55.27,0,0,0,352.1,241.91Z" transform="translate(-130.94 -75.67)"/>
<path class="cls-2" d="M462.07,76.66v-.07l-22,11" transform="translate(-130.94 -75.67)"/>
<path class="cls-2" d="M407.35,76.46c.13,0,.25,0,.38,0h54.35s0,.06,0,.09l.23-.12H407.35Z" transform="translate(-130.94 -75.67)"/>
<path class="cls-2" d="M462.07,76.66l.23-.12v-.07l-.23.12Z" transform="translate(-130.94 -75.67)"/>
<line class="cls-2" x1="221.08" y1="55.93" x2="221.08" y2="111.02"/>
<path class="cls-2" d="M407.35,186.72H462.3V131.79A55.12,55.12,0,0,1,407.35,186.72Z" transform="translate(-130.94 -75.67)"/>
<path class="cls-2" d="M352,186.68v0h55a54.67,54.67,0,0,1-32.75-11.12Z" transform="translate(-130.94 -75.67)"/>
<polygon class="cls-2" points="221.08 55.92 221.08 55.93 221.08 55.92 221.08 55.92"/>
<polyline class="cls-2" points="331.37 55.9 331.38 55.89 331.38 0.8 331.36 0.81 331.36 0.88 331.12 0.99"/>
<path class="cls-2" d="M407,76.46H352v55.13h0A55.14,55.14,0,0,1,407,76.46Z" transform="translate(-130.94 -75.67)"/>
<path class="cls-2" d="M462.07,76.59s0-.06,0-.09H407.73a54.75,54.75,0,0,1,32.34,11.06Z" transform="translate(-130.94 -75.67)"/>
<path class="cls-2" d="M407.18,76.46h.17l-.18,0-.17,0h.18Z" transform="translate(-130.94 -75.67)"/>
<path class="cls-2" d="M462.3,131.79c0-.07,0-.13,0-.2v0l0,.1Z" transform="translate(-130.94 -75.67)"/>
<path class="cls-2" d="M407.15,186.72H407l.17,0,.18,0h-.2Z" transform="translate(-130.94 -75.67)"/>
<path class="cls-2" d="M407.18,76.5h.55c-.13,0-.25,0-.38,0h-.17Z" transform="translate(-130.94 -75.67)"/>
<path class="cls-2" d="M374.25,175.6A54.67,54.67,0,0,0,407,186.72h.35a55.12,55.12,0,0,0,54.95-54.93v-.12Z" transform="translate(-130.94 -75.67)"/>
<path class="cls-2" d="M352,131.59l22.45-11.21L407.18,104l32.89-16.41A54.75,54.75,0,0,0,407.73,76.5h-.55v0H407A55.14,55.14,0,0,0,352,131.59Z" transform="translate(-130.94 -75.67)"/>
</g>
</svg>