<svg id="Layer_1" data-name="Layer 1" xmlns="http://www.w3.org/2000/svg" viewBox="0 0 121.07 119.83"><defs><style>.cls-1{fill:#91483b;}</style></defs><path class="cls-1" d="M429.39-4941.09l-3.85-58.2h11.52v5.79a2,2,0,0,0,1.95,2,2,2,0,0,0,2-2v-5.79h17.44v5.79a2,2,0,0,0,1.95,2,2,2,0,0,0,1.95-2v-5.79H470l3.84,58.2ZM399-5031.33V-5021a2,2,0,0,0,1.95,1.95,2,2,0,0,0,1.95-1.95v-10.37h29.52V-5021a2,2,0,0,0,1.95,1.95,2,2,0,0,0,2-1.95v-10.37h15.1l.95,14.36a13.61,13.61,0,0,0-2.65-.26,13.14,13.14,0,0,0-6.24,1.55,13.26,13.26,0,0,0-6.24-1.55,13,13,0,0,0-8.85,3.4,11.29,11.29,0,0,0-3.77,8.35v2.28H415.2a2,2,0,0,0-1.94,1.74l-6.4,60.36H388l-6-90.24Zm-11.3-8.38a12.76,12.76,0,0,1,4.28-9.41,15.44,15.44,0,0,1,10.48-4,16.2,16.2,0,0,1,3.06.29c-.34.27-.67.55-1,.83a16.65,16.65,0,0,0-5.54,12.28v4.49h-11.3Zm15.2,4.49v-4.49a12.76,12.76,0,0,1,4.28-9.41,14.91,14.91,0,0,1,2.88-2.06,14.91,14.91,0,0,1,2.88,2.06,12.76,12.76,0,0,1,4.28,9.41v4.49Zm14.76-17.89a15.48,15.48,0,0,1,10.48,4,12.76,12.76,0,0,1,4.28,9.41v4.48h-11.3v-4.48a16.65,16.65,0,0,0-5.54-12.28c-.32-.28-.64-.56-1-.83A16.2,16.2,0,0,1,417.63-5053.11ZM447-5012.93a9.45,9.45,0,0,1,2.74-.4,9.35,9.35,0,0,1,2.92.46l.64,9.67h-3.41v-2.27A11.21,11.21,0,0,0,447-5012.93Zm-6,7.46a7.48,7.48,0,0,1,2.48-5.48,7.48,7.48,0,0,1,2.48,5.48v2.27h-5v-2.27Zm-3.91,2.27h-8.57v-2.28A7.49,7.49,0,0,1,431-5011a9.22,9.22,0,0,1,6.22-2.36,9.45,9.45,0,0,1,2.74.4,11.21,11.21,0,0,0-2.89,7.45Zm21.35-2.27v2.27h-1.26l-.46-6.94A7.32,7.32,0,0,1,458.41-5005.47Zm19.45,66.21-4.1-62a2,2,0,0,0-1.95-1.95h-9.49v-2.27a11.33,11.33,0,0,0-3.77-8.36,13.22,13.22,0,0,0-2.21-1.62l-1.17-17.83a2,2,0,0,0-1.95-1.95H436.29v-4.48a16.65,16.65,0,0,0-5.54-12.28,19.39,19.39,0,0,0-13.12-5,19.7,19.7,0,0,0-7.6,1.51,19.74,19.74,0,0,0-7.6-1.51,19.37,19.37,0,0,0-13.12,5,16.65,16.65,0,0,0-5.54,12.28v4.49H368a2,2,0,0,0-1.94,1.75l-9.28,94.14v.21a2,2,0,0,0,2,1.93l26.35-.3a2,2,0,0,0,1,.3H476A2,2,0,0,0,477.86-4939.26Z" transform="translate(-356.79 5057.01)"/></svg>