<svg id="Layer_1" data-name="Layer 1" xmlns="http://www.w3.org/2000/svg" viewBox="0 0 127.75 127.76"><defs><style>.cls-1{fill:#91483b;}</style></defs><path class="cls-1" d="M330.16-4929.39a7.89,7.89,0,0,0,0,11.16,7.91,7.91,0,0,0,11.16,0l23.24-23.25-11.15-11.16Z" transform="translate(-327.85 5043.69)"/><path class="cls-1" d="M444.3-5032.38c-16.54-16.54-45.25-14.72-64,4-13,13-17.87,30.87-14.08,46.09l-.09-.13s2.79,14.25-3.1,20.14l-4.8,4.8,11.15,11.16,4.8-4.81c5.89-5.88,20.15-3.09,20.15-3.09l-.13-.1c.95.24,1.91.44,2.88.61a4.27,4.27,0,0,1,0-.87,27.35,27.35,0,0,1,1.41-5.79,33.11,33.11,0,0,1-8.65-2.65l8.88-8.87,3.92,3.91a26.31,26.31,0,0,1,2.3-2.65l-3.74-3.74,9.79-9.79,6.36,6.37a28.57,28.57,0,0,1,3.68-.75,4.19,4.19,0,0,1,.5,0l-8.06-8.06,9.77-9.79,9.78,9.78-7.93,7.94c.63,0,1.32.07,1.89.07l.5,0c.72.08,1.43.19,2.14.32l5.88-5.88,5,5c-.9,1.26-1.9,2.47-2.94,3.67a27.61,27.61,0,0,1,5.62,3.94C459.16-4990.23,459.93-5016.74,444.3-5032.38Zm-4.82,4.82a31.25,31.25,0,0,1,4.42,5.58l-8.38,8.38-9.78-9.78,8.42-8.42A31,31,0,0,1,439.48-5027.56Zm-24.78-9.3a34.7,34.7,0,0,1,16.27,3.29l-7.71,7.71-9.77-9.78Zm6.08,13.48L411-5013.6l-9.79-9.78,9.79-9.78ZM389-5011.13l9.78-9.77,9.78,9.77-9.78,9.79Zm7.31,12.27-9.78,9.77-9.79-9.77,9.79-9.78Zm11.82-37.21.43.43-9.78,9.78-4.68-4.69A44.09,44.09,0,0,1,408.09-5036.07Zm-23,12.55a47,47,0,0,1,6-5.06l5.2,5.2-9.78,9.78-5.38-5.38A44.81,44.81,0,0,1,385.11-5023.52Zm-6.07,7.43,5,5-9.77,9.78-1.22-1.21A44.53,44.53,0,0,1,379-5016.09Zm-7.27,22.16,2.46-2.46,9.78,9.78-8.95,8.95A34.68,34.68,0,0,1,371.77-4993.93Zm14.88,29.2a30.8,30.8,0,0,1-5.57-4.43,30.57,30.57,0,0,1-4.25-5.31l9.66-9.66,9.78,9.78Zm12.09-12.1L389-4986.6l9.78-9.79,9.78,9.79ZM411-4989.09l-9.79-9.77,9.79-9.78,9.77,9.78Zm2.48-22,9.77-9.77,9.78,9.77-9.78,9.79Zm12.25,12.27,9.78-9.78,9.78,9.78-9.78,9.77Zm16.74,16.73-4.48-4.48,9.78-9.78.22.23A44.33,44.33,0,0,1,442.48-4982.13Zm5.3-19.21-9.78-9.79,7.64-7.63a34.9,34.9,0,0,1,3.12,16.44Z" transform="translate(-327.85 5043.69)"/><path class="cls-1" d="M428.85-4928.47a22.9,22.9,0,0,1-15.13-2.3,23,23,0,0,1-10.3-11.33,18.62,18.62,0,0,1,2.22-.83,18,18,0,0,1,13.86,1.37,18.23,18.23,0,0,1,9.35,13.09Z" transform="translate(-327.85 5043.69)"/><path class="cls-1" d="M443.5-4959.12a18.07,18.07,0,0,1-13.86-1.36,18.32,18.32,0,0,1-9.35-13.1,22.93,22.93,0,0,1,15.14,2.3,22.9,22.9,0,0,1,10.29,11.33,19.77,19.77,0,0,1-2.22.83Z" transform="translate(-327.85 5043.69)"/><path class="cls-1" d="M434-4930.06a23.37,23.37,0,0,0-11.94-16.2,23.38,23.38,0,0,0-17.9-1.76c-.74.22-1.48.49-2.2.78a23,23,0,0,1,2.4-14.64A22.91,22.91,0,0,1,415.18-4972a23.37,23.37,0,0,0,11.95,16.2A23.31,23.31,0,0,0,445-4954c.75-.22,1.49-.49,2.21-.78a22.89,22.89,0,0,1-2.41,14.64A23,23,0,0,1,434-4930.06Z" transform="translate(-327.85 5043.69)"/></svg>