<svg id="Layer_1" data-name="Layer 1" xmlns="http://www.w3.org/2000/svg" viewBox="0 0 114.11 112.93"><defs><style>.cls-1{fill:#91483b;fill-rule:evenodd;}</style></defs><path class="cls-1" d="M260.51,388.83l.32,0a21.27,21.27,0,0,1-.44-5c.34-11.16,9.29-19.94,20-19.62a19.28,19.28,0,0,1,16.67,11,13.45,13.45,0,0,1,5-.8c7.66.23,13.67,6.89,13.43,14.86a14.86,14.86,0,0,1-1.58,6.26,19.29,19.29,0,0,1,15.06,19.72c-.32,10.77-9,19.25-19.31,18.94a18,18,0,0,1-3.55-.47l-3,3.42-13.18,15c-3.71,10.6-2.5,18-.76,25l-15.71-.47a72.21,72.21,0,0,0,.71-23.51l-10.33-18.16-4-7.07h-.43c-10.38-.31-18.52-9.33-18.2-20.14s9-19.32,19.38-19Zm88.72-17.92,1.08,1.08-4.06,4.06L345.17,375l4.06-4.06Zm6,13v1.52H349.5V383.9Zm-4.93,13.43-1.08,1.08-4.06-4.06,1.08-1.08,4.06,4.06Zm-13,6H335.8V397.6h1.52v5.74Zm-13.43-4.93-1.08-1.08,4.06-4.06,1.08,1.08-4.06,4.06Zm-6-13V383.9h5.74v1.52ZM322.81,372l1.08-1.08L328,375l-1.08,1.08L322.81,372Zm13-6h1.52v5.74H335.8V366Zm.76,9.33a9.35,9.35,0,1,1-9.35,9.35,9.35,9.35,0,0,1,9.35-9.35Zm-31.17,70.18h36.55a1.76,1.76,0,0,1,1.75,1.75v3.41a1.76,1.76,0,0,1-1.75,1.75h-.41v7.08h6.07a1.76,1.76,0,0,1,1.75,1.76v3.4a1.76,1.76,0,0,1-1.75,1.75h-2.24v8.75a.88.88,0,0,1-.88.87h-.58a.88.88,0,0,1-.88-.87v-8.75H304.31v8.75a.88.88,0,0,1-.88.87h-.58a.88.88,0,0,1-.88-.87v-8.75h-2.24a1.76,1.76,0,0,1-1.75-1.75v-3.4a1.76,1.76,0,0,1,1.75-1.76h6.07V452.4h-.41a1.76,1.76,0,0,1-1.75-1.75v-3.41a1.76,1.76,0,0,1,1.75-1.75Zm33.81,6.91H308.13v7.08H339.2V452.4Zm-57.63-18.77-3.69,10-10-11-4.53-5a18.45,18.45,0,0,0,8-3.74,18.19,18.19,0,0,0,10.21,9.71Zm4.66,10,1.14-9A17.34,17.34,0,0,0,299,430.37a19,19,0,0,0,2.82,1.81l-2.38,1.76-13.19,9.73Z" transform="translate(-241.12 -364.27)"/></svg>